<svg role="img" xmlns="http://www.w3.org/2000/svg" viewBox="0 0 520 148" xml:space="preserve"><path d="M172.57 147.12a8 8 0 0 1-3.92.88c-3.61 0-6.67-2.64-6.67-6.86 0-4.53 3.15-8.45 8.03-8.45 3.83 0 6.4 2.68 6.4 6.36 0 3.3-1.85 5.24-3.92 5.24-.88 0-1.69-.59-1.63-1.94h-.09q-1.14 1.94-3.1 1.94c-1.28 0-2.38-1.03-2.38-2.77a5.2 5.2 0 0 1 5.21-5.21c.95 0 1.78.2 2.35.46l-.75 3.98c-.33 1.67-.07 2.44.66 2.46 1.12.02 2.38-1.47 2.38-4.03 0-3.19-1.91-5.48-5.32-5.48-3.59 0-6.6 2.84-6.6 7.31 0 3.67 2.4 5.94 5.66 5.94 1.25 0 2.42-.26 3.32-.77zm-1.21-9.51a4 4 0 0 0-1.1-.15c-1.94 0-3.5 1.83-3.5 3.96 0 .97.48 1.67 1.45 1.67 1.28 0 2.44-1.63 2.68-2.99zm9.59 8.1.57-4.31h-1.8v-1.3h2l.42-3.19h-1.89v-1.3h2.09l.57-4.2h1.28l-.55 4.2h2.29l.57-4.2h1.3l-.55 4.2h1.8v1.3h-2l-.4 3.19h1.89v1.3h-2.09l-.57 4.31h-1.32l.57-4.31h-2.29l-.57 4.31zm4.38-5.61.42-3.19h-2.29l-.42 3.19zm10.96 7.5v-2.22a6.4 6.4 0 0 1-3.37-.97l.53-1.47c.79.53 1.94.95 3.17.95 1.56 0 2.62-.9 2.62-2.16 0-1.21-.86-1.96-2.49-2.62-2.24-.88-3.63-1.89-3.63-3.81 0-1.83 1.3-3.21 3.32-3.54v-2.22h1.36v2.13c1.32.04 2.22.4 2.86.77l-.55 1.45a5.3 5.3 0 0 0-2.77-.75c-1.69 0-2.33 1.01-2.33 1.89 0 1.14.81 1.72 2.73 2.51 2.27.92 3.41 2.07 3.41 4.03 0 1.74-1.21 3.37-3.48 3.74v2.29zm15.57-12.16c0 3.01-1.58 4.51-3.43 4.51-1.78 0-3.32-1.43-3.34-4.31 0-2.86 1.56-4.47 3.46-4.47 1.99 0 3.31 1.54 3.31 4.27m-5.23.13c-.04 1.83.64 3.21 1.85 3.21 1.28 0 1.85-1.36 1.85-3.26 0-1.74-.51-3.19-1.85-3.19-1.21 0-1.85 1.43-1.85 3.24m1.67 10.38 8.41-14.79h1.23l-8.41 14.79zm12.87-4.59c0 3.01-1.58 4.51-3.41 4.51-1.78 0-3.32-1.43-3.34-4.29 0-2.88 1.56-4.49 3.46-4.49 1.99 0 3.29 1.54 3.29 4.27m-5.23.13c-.02 1.83.68 3.21 1.87 3.21 1.28 0 1.85-1.36 1.85-3.26 0-1.74-.51-3.19-1.85-3.19-1.21 0-1.87 1.43-1.87 3.24m18.52 4.22c-.42-.42-.81-.84-1.39-1.45a6 6 0 0 1-4.33 1.69c-2.88 0-4.55-1.94-4.55-4.16 0-2.02 1.21-3.41 2.9-4.33v-.07a5 5 0 0 1-1.23-3.1 3.6 3.6 0 0 1 3.76-3.65c1.85 0 3.28 1.23 3.28 3.15 0 1.56-.9 2.79-3.26 3.96v.07a332 332 0 0 0 3.61 4.14 11 11 0 0 0 1.43-4.33h1.76c-.4 2.33-1.03 4.18-2.13 5.48l2.44 2.62h-2.29zm-2.33-2.55c-.88-.97-2.53-2.77-4.18-4.66-.79.51-1.92 1.45-1.92 3.01a2.9 2.9 0 0 0 3.04 2.99c1.27 0 2.35-.57 3.06-1.34m-4.51-9.04c0 1.06.48 1.87 1.12 2.66 1.5-.86 2.46-1.65 2.46-2.9 0-.9-.51-1.91-1.72-1.91-1.23-.01-1.86 1-1.86 2.15m15.44 11.59v-3.85h-3.41v-1.1h3.41v-1.58h-3.41v-1.1h2.86l-3.7-6.67h2.07l2.29 4.53c.35.75.62 1.34.88 2h.07q.33-.93.88-2.05l2.38-4.49h2.02l-3.94 6.67h2.86v1.1h-3.43v1.58h3.43v1.1h-3.43v3.85zm8.89-1.08 5.17-13.75h2.18l5.11 13.73v1.1h-12.45v-1.08zm10.32-.52-3.01-8.16a51 51 0 0 1-1.1-3.3h-.07c-.22.75-.62 1.98-.99 3.01l-3.1 8.45zm5.65 1.6v-1.1a4.4 4.4 0 0 0 2.51-3.85c0-.53-.02-.97-.11-1.54h-2.27v-1.39h2.05a15 15 0 0 1-.24-2.38c0-2.6 1.78-4.29 4.22-4.29 1.14 0 1.94.26 2.4.55l-.44 1.45a4 4 0 0 0-1.96-.44c-1.72 0-2.42 1.19-2.42 2.75 0 .95.13 1.65.26 2.35h3.17v1.39h-2.99c.07.84.11 1.67-.09 2.46a4.6 4.6 0 0 1-1.52 2.38v.04h6.56v1.61zm13.75 0 .57-4.31h-1.8v-1.3h2l.42-3.19h-1.89v-1.3h2.09l.57-4.2h1.28l-.55 4.2h2.29l.57-4.2h1.3l-.55 4.2h1.8v1.3h-2l-.4 3.19h1.89v1.3h-2.09l-.57 4.31h-1.32l.57-4.31h-2.29l-.57 4.31zm4.38-5.61.42-3.19h-2.29l-.42 3.19zm13.6-4.66c0 3.01-1.58 4.51-3.43 4.51-1.78 0-3.32-1.43-3.34-4.31 0-2.86 1.56-4.47 3.46-4.47 1.98 0 3.31 1.54 3.31 4.27m-5.24.13c-.04 1.83.64 3.21 1.85 3.21 1.28 0 1.85-1.36 1.85-3.26 0-1.74-.51-3.19-1.85-3.19-1.21 0-1.85 1.43-1.85 3.24m1.67 10.38 8.41-14.79h1.23l-8.41 14.79zm12.87-4.59c0 3.01-1.58 4.51-3.41 4.51-1.78 0-3.32-1.43-3.34-4.29 0-2.88 1.56-4.49 3.46-4.49 1.99 0 3.29 1.54 3.29 4.27m-5.23.13c-.02 1.83.68 3.21 1.87 3.21 1.28 0 1.85-1.36 1.85-3.26 0-1.74-.51-3.19-1.85-3.19-1.21 0-1.87 1.43-1.87 3.24m8.11 3.14 5.17-13.75h2.18l5.11 13.73v1.1h-12.45v-1.08zm10.32-.52-3.01-8.16a51 51 0 0 1-1.1-3.3h-.07c-.22.75-.62 1.98-.99 3.01l-3.1 8.45zm10.82-13.23-.15 4.42 3.81-.18v1.58l-3.81-.15v4.49l3.81-.18v1.58l-3.81-.15.15 4.51h-1.78l.11-4.51-3.78.15v-1.58l3.81.18v-4.49l-3.81.15v-1.58l3.81.18-.13-4.42zm17.21 14.83c-.42-.42-.81-.84-1.39-1.45a6 6 0 0 1-4.33 1.69c-2.88 0-4.55-1.94-4.55-4.16 0-2.02 1.21-3.41 2.9-4.33v-.07a5 5 0 0 1-1.23-3.1 3.6 3.6 0 0 1 3.76-3.65c1.85 0 3.28 1.23 3.28 3.15 0 1.56-.9 2.79-3.26 3.96v.07a332 332 0 0 0 3.61 4.14 11 11 0 0 0 1.43-4.33h1.76c-.4 2.33-1.03 4.18-2.13 5.48l2.44 2.62h-2.29zm-2.33-2.55c-.88-.97-2.53-2.77-4.18-4.66-.79.51-1.91 1.45-1.91 3.01a2.9 2.9 0 0 0 3.04 2.99c1.26 0 2.34-.57 3.05-1.34m-4.51-9.04c0 1.06.48 1.87 1.12 2.66 1.5-.86 2.46-1.65 2.46-2.9 0-.9-.51-1.91-1.72-1.91-1.23-.01-1.86 1-1.86 2.15m12.07 10.47c0-.79.55-1.36 1.3-1.36.79 0 1.3.57 1.3 1.36 0 .77-.51 1.36-1.3 1.36-.77 0-1.3-.59-1.3-1.36m.55-3.15-.31-10.56h2.11l-.31 10.56zM0 137.77h152.92v2.98H0zm367.08 0H520v2.98H367.08zm9.49-44.07.06-.64h-.22l-.07-.31-.28-1.32-.97.94c-.01.01-1 .97-2.37 2.1q-.4.34-.87.69-.57.45-1.09.82-1.33.88-2.8 1.7l-3 1.39h.29q-2.24 1.08-4.77 2.03a53 53 0 0 1-18.48 3.22c-8.82 0-16.62-2.08-23.17-6.19a42.6 42.6 0 0 1-15.51-17.26c-3.73-7.36-5.63-16.17-5.63-26.2 0-9.93 1.89-18.71 5.63-26.11a42.5 42.5 0 0 1 15.58-17.34c6.6-4.1 14.37-6.18 23.09-6.18 5.84 0 11.54.89 16.96 2.63q2.47.8 4.7 1.82h-.21l3.02 1.4q1.94 1.1 3.66 2.38l.72.58.1.08a43 43 0 0 1 2.24 1.99l.97.94.28-1.32.03-.12h.07l.04-.47a21 21 0 0 1 3.89-7.91l.83-1.04-1.31-.15c-.03 0-3.31-.39-6.12-1.26l-.26-.09q-.92-.31-1.89-.56a70 70 0 0 0-4.7-1.17c-3.83-.84-7.85-1.52-11.93-2.02A92 92 0 0 0 342.02 0a60 60 0 0 0-22.5 4.13 57 57 0 0 0-18.1 11.48 53 53 0 0 0-12.1 17.36 54 54 0 0 0-4.36 21.71c0 7.78 1.47 15.08 4.36 21.71a53 53 0 0 0 12.1 17.36 56 56 0 0 0 18.1 11.49 61 61 0 0 0 22.5 4.12 112 112 0 0 0 22.99-2.68q3.75-.85 6.84-1.89.75-.2 1.51-.45l.28-.09a41 41 0 0 1 6.46-1.33l1.31-.15-.8-1.04a22 22 0 0 1-4.04-8.03M266.45 15.15c.04-5.21 2.61-12.9 2.63-12.98l.43-1.28-1.31.31q-3.57.85-7.27.87h-.18q-3.7-.02-7.65-.87l-1.28-.28.42 1.24c.03.08 2.64 7.9 2.64 13.11v78.85c-.01 5.21-2.61 13-2.64 13.08l-.43 1.28 1.31-.31a33 33 0 0 1 15.09 0l1.28.28-.42-1.24c-.03-.08-2.64-7.9-2.64-13.11V15.15zM482.08 2.17l.43-1.28-1.31.31q-3.58.86-7.29.87h-.13a36 36 0 0 1-7.67-.87l-1.28-.28.42 1.24c.03.08 2.64 7.9 2.64 13.11V49.1h-60.75V15.22c.02-5.21 2.61-12.97 2.64-13.04l.43-1.28-1.31.31q-3.57.85-7.27.87h-.18q-3.7-.02-7.65-.87l-1.28-.28.42 1.24c.03.08 2.64 7.9 2.64 13.11v78.91c-.03 5.21-2.61 12.93-2.63 13.01l-.43 1.28 1.31-.31a33 33 0 0 1 15.09 0l1.28.28-.42-1.24c-.03-.08-2.64-7.9-2.64-13.11V55.13h60.75v39.03c-.02 5.21-2.61 12.97-2.64 13.04l-.43 1.28 1.31-.31a33 33 0 0 1 15.09 0l1.28.28-.42-1.24c-.03-.08-2.64-7.9-2.64-13.11V15.18c.04-5.21 2.61-12.93 2.64-13.01m34.86 91.96V15.12c.05-5.21 2.61-12.87 2.63-12.94L520 .9l-1.31.31q-3.57.85-7.27.87h-.18q-3.7-.01-7.65-.87l-1.28-.28.42 1.24c.03.08 2.64 7.9 2.64 13.11v78.84c-.01 5.21-2.61 13-2.64 13.08l-.43 1.28 1.31-.31a33 33 0 0 1 15.09 0l1.28.28-.42-1.24c-.01-.08-2.61-7.87-2.62-13.08M227.97 16.01v-.74c0-5.21 2.6-13.03 2.63-13.11l.43-1.27-1.3.31q-3.66.87-7.36.87h-6.27l-34.96 67.26-34.97-67.26h-6.26c-2.45 0-4.93-.29-7.36-.87l-1.31-.31.43 1.27c.03.08 2.61 7.83 2.63 13.04v79.69c-.23 5.18-2.59 12.24-2.61 12.31l-.43 1.28 1.31-.31a33 33 0 0 1 15.09 0l1.28.28-.42-1.24c-.03-.08-2.64-7.9-2.64-13.11v-.18l-.02-.03v-79.7l34.33 66.23h1.85l34.33-66.31v80.04c-.02 5.21-2.61 12.97-2.64 13.04l-.43 1.28 1.31-.31a33 33 0 0 1 15.09 0l1.28.28-.42-1.24c-.03-.08-2.64-7.9-2.64-13.11l-.01-.15V16.01zM66.7 8.68c-8.57-4.38-18.75-6.6-30.27-6.6H8.66q-3.7 0-7.36-.87L0 .89l.43 1.27c.03.08 2.63 7.89 2.63 13.11l.01.74h.01v77.34h-.02v.74c0 5.21-2.6 13.03-2.63 13.11L0 108.48l1.31-.31q3.61-.86 7.24-.87h27.88c11.53 0 21.71-2.22 30.27-6.6a49.7 49.7 0 0 0 20.15-18.43c4.79-7.84 7.22-17.12 7.22-27.58s-2.43-19.74-7.22-27.58A49.7 49.7 0 0 0 66.7 8.68m-52.05 92.28V7.12h21.78c14.04 0 25.15 4.21 33.02 12.51 7.88 8.32 11.87 20.11 11.87 35.05 0 14.95-4 26.74-11.87 35.05s-18.98 12.51-33.02 12.51H14.65zM114.73 3.21Q113.33.6 109.48.59q-3.85 0-5.25 2.62a10.6 10.6 0 0 0-1.27 5.09q0 1.7.31 3.55l4.97 24.88.11.62h2.38v-.67l4.96-24.82q.15-.79.23-1.71.08-.94.08-1.84.01-2.7-1.27-5.1" fill="#231f20"/></svg>
